<svg width="40" height="72" viewBox="0 0 40 72" fill="none" xmlns="http://www.w3.org/2000/svg">
<g clip-path="url(#clip0_1_92)">
<path fill-rule="evenodd" clip-rule="evenodd" d="M29.3103 18.8784L25.1216 14.6888C24.8402 14.4074 24.4587 14.2493 24.0608 14.2493C23.6629 14.2493 23.2813 14.4074 23 14.6888L11.4397 26.25C11.1571 26.5303 10.9987 26.9123 11 27.3103V31.5C11 32.3284 11.6716 33 12.5 33H16.6897C17.0877 33.0013 17.4697 32.8429 17.75 32.5603L29.3103 21C29.5917 20.7187 29.7498 20.3371 29.7498 19.9392C29.7498 19.5413 29.5917 19.1598 29.3103 18.8784ZM16.6897 31.5H12.5V27.3103L20.75 19.0603L24.9397 23.25L16.6897 31.5ZM26 22.1888L21.8103 18L24.0603 15.75L28.25 19.9387L26 22.1888Z" fill="#121417"/>
</g>
<rect width="2" height="32" transform="translate(19 40)" fill="#DBE0E6"/>
<defs>
<clipPath id="clip0_1_92">
<rect width="24" height="24" fill="white" transform="translate(8 12)"/>
</clipPath>
</defs>
</svg>
